<svg width="546" height="552" viewBox="0 0 546 552" fill="none" xmlns="http://www.w3.org/2000/svg">
<path fill-rule="evenodd" clip-rule="evenodd" d="M279.755 0.571633C274.736 1.06663 258.525 3.77063 249.755 5.57463C213.305 13.0746 169.853 31.9306 142.543 52.0976C109.552 76.4616 81.5254 108.709 59.7084 147.406C46.8084 170.286 31.3034 207.832 22.9454 236.424C13.9634 267.154 10.9674 281.625 8.25035 307.406C-1.42265 399.218 -1.96165 418.945 3.71435 473.579C4.80935 484.124 5.76535 500.017 5.83635 508.896C5.96035 524.202 6.08735 525.18 8.26635 527.713C10.4664 530.271 11.0553 530.401 21.9813 530.748C29.3473 530.982 36.7433 530.553 42.8273 529.538C48.0123 528.673 56.9803 527.705 62.7553 527.386C78.5363 526.515 79.5714 526.255 81.7994 522.602C84.3364 518.44 84.2704 516.045 81.0924 497.2C77.9034 478.291 77.6164 459.457 80.1724 436.906C81.0764 428.931 82.4923 412.281 83.3193 399.906C84.1463 387.531 85.9244 370.328 87.2714 361.677C88.6184 353.027 90.4013 338.831 91.2333 330.132C92.9063 312.648 93.8313 307.074 99.0693 282.906C101.036 273.831 104.483 257.406 106.729 246.406C112.621 217.557 114.513 210.175 117.815 203.153C119.432 199.714 120.755 196.744 120.755 196.553C120.755 196.362 123.028 192.022 125.807 186.909C135.403 169.247 148.467 153.383 179.551 121.643C193.723 107.172 209.653 97.0666 230.755 89.1606C233.78 88.0276 238.116 86.4056 240.391 85.5566C247.459 82.9186 261.772 80.9106 273.255 80.9456C296.252 81.0146 315.791 82.6596 324.755 85.2806C337.456 88.9936 348.795 93.5496 355.38 97.5856C358.611 99.5666 364.855 103.221 369.255 105.708C373.655 108.194 380.051 112.431 383.467 115.123C391.921 121.784 405.249 136.203 407.629 141.263C415.605 158.215 417.31 162.811 419.373 172.9C420.789 179.828 424.562 193.752 433.331 224.406C442.349 255.929 443.772 269.19 444.223 325.906C444.383 345.981 444.844 369.606 445.247 378.406C445.895 392.563 445.686 396.594 443.43 413.406C439.836 440.183 439.451 447.509 440.716 465C441.328 473.473 442.211 489.406 442.677 500.406C443.594 522.063 444.487 525.977 449.392 529.835C453.463 533.037 456.373 533.354 463.11 531.326C468.419 529.729 473.336 529.45 499.255 529.278C527.117 529.092 529.658 528.927 534.914 526.954C538.026 525.786 541.169 524.112 541.897 523.235C542.626 522.357 543.306 518.886 543.41 515.522C543.514 512.158 544.088 507.831 544.687 505.906C546.057 501.499 544.321 449.208 542.197 430.906C539.843 410.633 536.016 383.886 533.877 372.764C530.307 354.204 524.735 305.959 522.748 276.406C517.612 200.007 514.948 188.587 488.692 130.406C476.647 103.715 471.812 96.1286 457.755 81.8646C444.994 68.9166 427.242 53.8116 408.249 39.7436C380.644 19.2956 352.973 7.88063 315.374 1.42963C307.377 0.057631 289.36 -0.376367 279.755 0.571633ZM274.255 97.5146C273.155 97.8026 267.53 99.1726 261.755 100.559C244.754 104.64 224.322 111.634 207.296 119.202C191.188 126.362 168.677 149.979 154.946 174.126C135.188 208.871 131.584 216.236 124.461 236.406C118.011 254.67 116.395 260.7 111.863 283.406C109.668 294.406 106.52 309.031 104.869 315.906C101.908 328.23 101.342 331.367 96.2234 363.785C92.7824 385.58 91.5163 408.48 91.5183 448.906C91.5203 474.684 91.8834 484.596 93.0944 491.906C95.9984 509.431 96.7553 515.75 96.7553 522.448C96.7553 528.723 96.9563 529.307 100.252 532.603L103.75 536.101L120.002 535.475C144.167 534.545 146.191 534.236 149.722 530.937C152.504 528.338 152.755 527.559 152.755 521.539C152.755 517.929 152.037 509.897 151.16 503.69C149.357 490.943 149.832 468.716 152.319 449.406C153.099 443.356 154.427 428.731 155.271 416.906C158.012 378.497 159.67 362.762 163.177 341.906C168.671 309.227 177.486 271.676 181.838 262.406C182.355 261.306 184.799 254.14 187.269 246.482C192.401 230.571 194.129 227.229 208.245 205.906C216.225 193.85 220.589 188.406 227.88 181.406C233.036 176.456 238.605 171.741 240.255 170.929C241.905 170.116 244.952 168.417 247.027 167.152C252.96 163.536 267.526 159.086 275.885 158.336C281.44 157.838 285.52 158.099 290.885 159.294C303.586 162.125 311.709 168.191 321.785 182.368C325.082 187.007 328.207 191.067 328.729 191.39C330.798 192.669 340.621 209.867 343.588 217.406C347.729 227.928 354.202 255.076 357.776 276.906C368.921 344.977 369.28 349.835 370.722 451.906C371.286 491.781 372.02 526.881 372.354 529.905C373.474 540.046 377.511 544.497 389.586 548.904C396.311 551.358 399.362 551.906 406.298 551.906C414.542 551.906 414.889 551.81 418.466 548.532L422.147 545.158L422.886 525.782C423.292 515.125 424.115 501.456 424.716 495.406C427.3 469.352 427.697 458.507 426.634 443.011C425.986 433.564 425.876 421.882 426.357 413.406C427.434 394.394 426.956 369.713 425.254 356.406C424.48 350.356 423.346 340.006 422.735 333.406C422.124 326.806 420.997 316.681 420.23 310.906C419.463 305.131 418.343 293.206 417.741 284.406C416.255 262.668 413.55 245.645 409.4 231.906C407.489 225.581 404.299 214.331 402.312 206.906C398.974 194.435 394.616 181.802 392.824 179.406C392.413 178.856 390.573 174.581 388.734 169.906C381.424 151.319 373.644 138.914 360.825 125.406C349.573 113.549 345.432 110.664 334.986 107.406C330.184 105.909 322.035 103.13 316.878 101.231C307.964 97.9486 306.729 97.7586 291.878 97.3836C283.285 97.1676 275.355 97.2266 274.255 97.5146ZM271.255 196.256C263.928 198.158 259.415 200.779 248.221 209.632C240.316 215.883 236.056 220.31 228.151 230.487C216.635 245.314 213.863 249.685 207.478 263.09C199.626 279.573 193.869 299.38 188.639 327.906C182.901 359.207 177.911 389.456 177.258 396.906C176.198 409.003 173.864 427.641 172.062 438.406C169.861 451.553 169.544 500.305 171.601 509.278C172.342 512.508 172.954 518.358 172.961 522.278C172.976 530.367 174.71 535.109 178.241 536.717C179.555 537.316 184.37 537.812 188.942 537.82C193.514 537.828 199.679 538.3 202.641 538.87C221.243 542.448 224.142 537.86 220.136 511.186C218.958 503.348 218.704 497.541 219.205 489.906C219.584 484.131 220.27 472.656 220.731 464.406C221.191 456.156 222.463 443.556 223.557 436.406C224.651 429.256 225.846 419.131 226.212 413.906C226.999 402.684 229.069 390.032 232.266 376.906C233.538 371.681 234.889 364.931 235.268 361.906C236.659 350.812 239.863 337.123 243.693 325.906C245.853 319.581 249.007 309.673 250.703 303.888C252.398 298.103 255.016 290.214 256.52 286.358C261.582 273.382 274.968 251.71 276.788 253.546C278.387 255.159 282.849 276.374 284.33 289.406C285.142 296.556 286.239 318.831 286.766 338.906C287.294 358.981 288.204 378.781 288.789 382.906C289.374 387.031 290.275 420.331 290.791 456.906C291.307 493.481 292.128 525.639 292.616 528.369C293.279 532.081 294.28 533.971 296.588 535.869C301.203 539.663 311.74 543.775 320.232 545.095C326.699 546.1 328.513 546.032 333.013 544.614C338.63 542.843 345.396 537.185 346.326 533.481C347.104 530.377 346.082 465.142 344.883 441.406C344.327 430.406 343.175 415.331 342.323 407.906C341.471 400.481 340.737 389.006 340.692 382.406C340.646 375.806 340.197 367.931 339.693 364.906C338.307 356.593 335.778 310.109 336.4 304.406C337.898 290.685 331.686 258.202 323.349 236.155C316.828 218.911 314.031 213.995 306.823 207.113C296.208 196.978 283.46 193.086 271.255 196.256Z" fill="#0000FF"/>
<path fill-rule="evenodd" clip-rule="evenodd" d="M279.755 0.571633C274.736 1.06663 258.525 3.77063 249.755 5.57463C213.305 13.0746 169.853 31.9306 142.543 52.0976C109.552 76.4616 81.5254 108.709 59.7084 147.406C46.8084 170.286 31.3034 207.832 22.9454 236.424C13.9634 267.154 10.9674 281.625 8.25035 307.406C-1.42265 399.218 -1.96165 418.945 3.71435 473.579C4.80935 484.124 5.76535 500.017 5.83635 508.896C5.96035 524.202 6.08735 525.18 8.26635 527.713C10.4664 530.271 11.0553 530.401 21.9813 530.748C29.3473 530.982 36.7433 530.553 42.8273 529.538C48.0123 528.673 56.9803 527.705 62.7553 527.386C78.5363 526.515 79.5714 526.255 81.7994 522.602C84.3364 518.44 84.2704 516.045 81.0924 497.2C77.9034 478.291 77.6164 459.457 80.1724 436.906C81.0764 428.931 82.4923 412.281 83.3193 399.906C84.1463 387.531 85.9244 370.328 87.2714 361.677C88.6184 353.027 90.4013 338.831 91.2333 330.132C92.9063 312.648 93.8313 307.074 99.0693 282.906C101.036 273.831 104.483 257.406 106.729 246.406C112.621 217.557 114.513 210.175 117.815 203.153C119.432 199.714 120.755 196.744 120.755 196.553C120.755 196.362 123.028 192.022 125.807 186.909C135.403 169.247 148.467 153.383 179.551 121.643C193.723 107.172 209.653 97.0666 230.755 89.1606C233.78 88.0276 238.116 86.4056 240.391 85.5566C247.459 82.9186 261.772 80.9106 273.255 80.9456C296.252 81.0146 315.791 82.6596 324.755 85.2806C337.456 88.9936 348.795 93.5496 355.38 97.5856C358.611 99.5666 364.855 103.221 369.255 105.708C373.655 108.194 380.051 112.431 383.467 115.123C391.921 121.784 405.249 136.203 407.629 141.263C415.605 158.215 417.31 162.811 419.373 172.9C420.789 179.828 424.562 193.752 433.331 224.406C442.349 255.929 443.772 269.19 444.223 325.906C444.383 345.981 444.844 369.606 445.247 378.406C445.895 392.563 445.686 396.594 443.43 413.406C439.836 440.183 439.451 447.509 440.716 465C441.328 473.473 442.211 489.406 442.677 500.406C443.594 522.063 444.487 525.977 449.392 529.835C453.463 533.037 456.373 533.354 463.11 531.326C468.419 529.729 473.336 529.45 499.255 529.278C527.117 529.092 529.658 528.927 534.914 526.954C538.026 525.786 541.169 524.112 541.897 523.235C542.626 522.357 543.306 518.886 543.41 515.522C543.514 512.158 544.088 507.831 544.687 505.906C546.057 501.499 544.321 449.208 542.197 430.906C539.843 410.633 536.016 383.886 533.877 372.764C530.307 354.204 524.735 305.959 522.748 276.406C517.612 200.007 514.948 188.587 488.692 130.406C476.647 103.715 471.812 96.1286 457.755 81.8646C444.994 68.9166 427.242 53.8116 408.249 39.7436C380.644 19.2956 352.973 7.88063 315.374 1.42963C307.377 0.057631 289.36 -0.376367 279.755 0.571633ZM274.255 97.5146C273.155 97.8026 267.53 99.1726 261.755 100.559C244.754 104.64 224.322 111.634 207.296 119.202C191.188 126.362 168.677 149.979 154.946 174.126C135.188 208.871 131.584 216.236 124.461 236.406C118.011 254.67 116.395 260.7 111.863 283.406C109.668 294.406 106.52 309.031 104.869 315.906C101.908 328.23 101.342 331.367 96.2234 363.785C92.7824 385.58 91.5163 408.48 91.5183 448.906C91.5203 474.684 91.8834 484.596 93.0944 491.906C95.9984 509.431 96.7553 515.75 96.7553 522.448C96.7553 528.723 96.9563 529.307 100.252 532.603L103.75 536.101L120.002 535.475C144.167 534.545 146.191 534.236 149.722 530.937C152.504 528.338 152.755 527.559 152.755 521.539C152.755 517.929 152.037 509.897 151.16 503.69C149.357 490.943 149.832 468.716 152.319 449.406C153.099 443.356 154.427 428.731 155.271 416.906C158.012 378.497 159.67 362.762 163.177 341.906C168.671 309.227 177.486 271.676 181.838 262.406C182.355 261.306 184.799 254.14 187.269 246.482C192.401 230.571 194.129 227.229 208.245 205.906C216.225 193.85 220.589 188.406 227.88 181.406C233.036 176.456 238.605 171.741 240.255 170.929C241.905 170.116 244.952 168.417 247.027 167.152C252.96 163.536 267.526 159.086 275.885 158.336C281.44 157.838 285.52 158.099 290.885 159.294C303.586 162.125 311.709 168.191 321.785 182.368C325.082 187.007 328.207 191.067 328.729 191.39C330.798 192.669 340.621 209.867 343.588 217.406C347.729 227.928 354.202 255.076 357.776 276.906C368.921 344.977 369.28 349.835 370.722 451.906C371.286 491.781 372.02 526.881 372.354 529.905C373.474 540.046 377.511 544.497 389.586 548.904C396.311 551.358 399.362 551.906 406.298 551.906C414.542 551.906 414.889 551.81 418.466 548.532L422.147 545.158L422.886 525.782C423.292 515.125 424.115 501.456 424.716 495.406C427.3 469.352 427.697 458.507 426.634 443.011C425.986 433.564 425.876 421.882 426.357 413.406C427.434 394.394 426.956 369.713 425.254 356.406C424.48 350.356 423.346 340.006 422.735 333.406C422.124 326.806 420.997 316.681 420.23 310.906C419.463 305.131 418.343 293.206 417.741 284.406C416.255 262.668 413.55 245.645 409.4 231.906C407.489 225.581 404.299 214.331 402.312 206.906C398.974 194.435 394.616 181.802 392.824 179.406C392.413 178.856 390.573 174.581 388.734 169.906C381.424 151.319 373.644 138.914 360.825 125.406C349.573 113.549 345.432 110.664 334.986 107.406C330.184 105.909 322.035 103.13 316.878 101.231C307.964 97.9486 306.729 97.7586 291.878 97.3836C283.285 97.1676 275.355 97.2266 274.255 97.5146ZM271.755 196.296C265.96 197.585 259.728 200.469 256.064 203.558C254.858 204.575 250.441 208.106 246.248 211.406C233.886 221.133 216.432 244.137 208.308 261.406C199.073 281.037 196.157 290.774 189.885 322.906C181.434 366.206 178.315 385.245 176.699 403.406C176.16 409.456 174.527 422.281 173.071 431.906C170.729 447.374 170.412 452.541 170.338 476.406C170.279 495.758 170.637 505.074 171.604 509.294C172.347 512.532 173.058 519.014 173.186 523.698C173.407 531.85 173.552 532.335 176.547 535.011C179.51 537.659 180.196 537.81 189.465 537.861C194.85 537.891 201.055 538.352 203.255 538.887C208.75 540.221 215.93 540.092 217.842 538.624C222.239 535.248 222.723 529.278 220.083 510.988C218.625 500.895 218.563 497.348 219.597 483.406C220.25 474.606 220.778 464.706 220.77 461.406C220.762 458.106 221.852 447.981 223.192 438.906C224.532 429.831 225.919 418.131 226.274 412.906C227.012 402.055 228.9 390.604 232.209 376.906C233.471 371.681 234.805 365.156 235.173 362.406C236.611 351.666 240.104 336.075 242.786 328.426C244.333 324.015 247.442 314.277 249.694 306.785C254.218 291.741 257.511 282.963 261.465 275.406C264.948 268.75 273.914 254.587 275.208 253.698C277.382 252.203 278.205 254.641 282.192 274.406C284.585 286.268 286.611 315.002 287.269 346.406C287.615 362.906 288.312 379.106 288.817 382.406C289.322 385.706 290.179 418.556 290.721 455.406C291.263 492.256 292.007 524.593 292.373 527.265C293.227 533.49 297.098 537.419 306.055 541.154C315.808 545.22 326.119 546.525 332.89 544.549C338.611 542.88 345.363 537.334 346.307 533.53C347.098 530.34 346.086 465.388 344.871 441.406C344.286 429.856 343.124 414.781 342.29 407.906C341.455 401.031 340.768 390.132 340.764 383.686C340.759 377.24 340.104 367.34 339.308 361.686C337.638 349.827 335.472 307.48 336.367 304.192C337.023 301.78 335.216 280.932 333.787 274.438C333.299 272.22 332.143 266.581 331.218 261.906C329.317 252.297 320.218 226.364 316.079 218.759C310.955 209.346 298.84 199.197 289.369 196.384C283.515 194.646 279.275 194.625 271.755 196.296Z" fill="#318CDE"/>
<path fill-rule="evenodd" clip-rule="evenodd" d="M279.755 0.571633C261.429 2.37963 234.121 8.60663 214.755 15.3926C197.697 21.3696 172.353 32.9186 162.419 39.2406C159.579 41.0486 156.58 42.7846 155.755 43.0996C153.623 43.9126 139.509 54.1166 131.314 60.7706C104.365 82.6506 78.7293 113.667 59.7083 147.406C46.8083 170.286 31.3033 207.832 22.9453 236.424C13.9633 267.154 10.9673 281.626 8.25134 307.406C-1.03566 395.554 -1.91366 420.687 2.78734 463.906C5.19034 485.998 5.71434 493.741 5.83734 508.969C5.96034 524.199 6.08834 525.181 8.26634 527.713C10.4663 530.271 11.0553 530.401 21.9813 530.748C29.3473 530.982 36.7433 530.553 42.8273 529.538C48.0123 528.673 56.9803 527.705 62.7553 527.386C78.5363 526.515 79.5713 526.255 81.7993 522.602C84.3363 518.44 84.2703 516.045 81.0923 497.2C77.9033 478.291 77.6163 459.457 80.1723 436.906C81.0763 428.931 82.4923 412.281 83.3193 399.906C84.1463 387.531 85.9243 370.328 87.2713 361.677C88.6183 353.027 90.4013 338.831 91.2333 330.132C92.9063 312.648 93.8313 307.074 99.0693 282.906C101.036 273.831 104.483 257.406 106.729 246.406C112.621 217.557 114.513 210.175 117.815 203.153C119.432 199.714 120.755 196.744 120.755 196.553C120.755 196.362 123.028 192.022 125.807 186.909C135.403 169.247 148.467 153.383 179.551 121.643C193.723 107.172 209.653 97.0666 230.755 89.1606C233.78 88.0276 238.116 86.4056 240.391 85.5566C247.459 82.9186 261.772 80.9106 273.255 80.9456C296.252 81.0146 315.791 82.6596 324.755 85.2806C337.456 88.9936 348.795 93.5496 355.38 97.5856C358.611 99.5666 364.855 103.221 369.255 105.708C373.655 108.194 380.051 112.431 383.467 115.123C391.921 121.784 405.249 136.203 407.629 141.263C415.605 158.215 417.31 162.811 419.373 172.9C420.789 179.828 424.562 193.752 433.331 224.406C442.349 255.929 443.772 269.19 444.223 325.906C444.383 345.981 444.844 369.606 445.247 378.406C445.896 392.589 445.689 396.564 443.416 413.406C439.955 439.063 439.43 448.986 440.695 464.906C441.285 472.331 442.002 485.606 442.288 494.406C443.163 521.287 444.031 525.618 449.392 529.835C453.463 533.037 456.373 533.354 463.11 531.326C468.419 529.729 473.336 529.45 499.255 529.278C527.117 529.092 529.658 528.927 534.914 526.954C538.026 525.786 541.176 524.103 541.914 523.215C542.652 522.326 543.3 519.08 543.355 516.002C543.41 512.924 543.982 508.523 544.626 506.221C545.505 503.08 545.546 495.098 544.788 474.221C544.234 458.923 543.53 443.481 543.224 439.906C542.072 426.423 536.589 387.721 533.237 369.41C530.013 351.802 524.576 303.591 522.748 276.406C517.612 200.007 514.948 188.587 488.692 130.406C476.647 103.715 471.812 96.1286 457.755 81.8646C444.994 68.9166 427.242 53.8116 408.249 39.7436C380.644 19.2956 352.973 7.88063 315.374 1.42963C307.377 0.057631 289.36 -0.376367 279.755 0.571633ZM274.255 97.5166C273.155 97.8036 267.53 99.1726 261.755 100.559C244.754 104.64 224.322 111.634 207.296 119.202C191.188 126.362 168.677 149.979 154.946 174.126C135.188 208.871 131.584 216.236 124.461 236.406C118.011 254.67 116.395 260.7 111.863 283.406C109.668 294.406 106.52 309.031 104.869 315.906C101.908 328.23 101.342 331.367 96.2233 363.785C92.7823 385.58 91.5163 408.48 91.5183 448.906C91.5203 474.684 91.8833 484.596 93.0943 491.906C95.9983 509.431 96.7553 515.75 96.7553 522.448C96.7553 528.723 96.9563 529.307 100.252 532.603L103.75 536.101L120.002 535.475C144.167 534.545 146.191 534.236 149.722 530.937C152.504 528.338 152.755 527.559 152.755 521.539C152.755 517.929 152.037 509.897 151.16 503.69C149.357 490.943 149.832 468.716 152.319 449.406C153.099 443.356 154.427 428.731 155.271 416.906C158.012 378.497 159.67 362.762 163.177 341.906C168.671 309.227 177.486 271.676 181.838 262.406C182.355 261.306 184.799 254.14 187.269 246.482C192.401 230.571 194.129 227.229 208.245 205.906C216.225 193.85 220.589 188.406 227.88 181.406C233.036 176.456 238.605 171.741 240.255 170.929C241.905 170.116 244.952 168.417 247.027 167.152C252.96 163.536 267.526 159.086 275.885 158.336C281.44 157.838 285.52 158.099 290.885 159.294C303.586 162.125 311.709 168.191 321.785 182.368C325.082 187.007 328.207 191.067 328.729 191.39C330.798 192.669 340.621 209.867 343.588 217.406C347.729 227.928 354.202 255.076 357.776 276.906C368.921 344.977 369.28 349.835 370.722 451.906C371.286 491.781 372.02 526.881 372.354 529.905C373.474 540.046 377.511 544.497 389.586 548.904C396.311 551.358 399.362 551.906 406.298 551.906C414.542 551.906 414.889 551.81 418.466 548.532L422.147 545.158L422.886 525.782C423.292 515.125 424.115 501.456 424.716 495.406C427.3 469.352 427.697 458.507 426.634 443.011C425.986 433.564 425.876 421.882 426.357 413.406C427.427 394.521 426.96 369.79 425.281 356.406C423.933 345.655 423.379 340.587 422.223 328.406C421.909 325.106 421.02 317.456 420.246 311.406C419.472 305.356 418.346 293.206 417.743 284.406C416.254 262.659 413.549 245.641 409.4 231.906C407.489 225.581 404.299 214.331 402.312 206.906C398.974 194.435 394.616 181.802 392.824 179.406C392.413 178.856 390.573 174.581 388.734 169.906C381.424 151.319 373.644 138.914 360.825 125.406C349.573 113.549 345.432 110.664 334.986 107.406C330.184 105.909 322.07 103.143 316.956 101.26C308.145 98.0156 306.832 97.8136 291.956 97.4146C283.32 97.1836 275.355 97.2286 274.255 97.5166Z" fill="#00FFFF"/>
<path fill-rule="evenodd" clip-rule="evenodd" d="M279.755 0.571633C261.429 2.37963 234.121 8.60663 214.755 15.3926C197.697 21.3696 172.353 32.9186 162.419 39.2406C159.579 41.0486 156.58 42.7846 155.755 43.0996C153.623 43.9126 139.509 54.1166 131.314 60.7706C104.365 82.6506 78.7293 113.667 59.7083 147.406C46.8083 170.286 31.3033 207.832 22.9453 236.424C13.9633 267.154 10.9673 281.626 8.25134 307.406C-1.03566 395.554 -1.91366 420.687 2.78734 463.906C5.19034 485.998 5.71434 493.741 5.83734 508.969C5.96034 524.199 6.08834 525.181 8.26634 527.713C10.4663 530.271 11.0553 530.401 21.9813 530.748C29.3473 530.982 36.7433 530.553 42.8273 529.538C48.0123 528.673 56.9803 527.705 62.7553 527.386C78.5363 526.515 79.5713 526.255 81.7993 522.602C84.3363 518.44 84.2703 516.045 81.0923 497.2C77.9033 478.291 77.6163 459.457 80.1723 436.906C81.0763 428.931 82.4923 412.281 83.3193 399.906C84.1463 387.531 85.9243 370.328 87.2713 361.677C88.6183 353.027 90.4013 338.831 91.2333 330.132C92.9063 312.648 93.8313 307.074 99.0693 282.906C101.036 273.831 104.483 257.406 106.729 246.406C112.621 217.557 114.513 210.175 117.815 203.153C119.432 199.714 120.755 196.744 120.755 196.553C120.755 196.362 123.028 192.022 125.807 186.909C135.403 169.247 148.467 153.383 179.551 121.643C193.723 107.172 209.653 97.0666 230.755 89.1606C233.78 88.0276 238.116 86.4056 240.391 85.5566C247.459 82.9186 261.772 80.9106 273.255 80.9456C296.252 81.0146 315.791 82.6596 324.755 85.2806C337.456 88.9936 348.795 93.5496 355.38 97.5856C358.611 99.5666 364.855 103.221 369.255 105.708C373.655 108.194 380.051 112.431 383.467 115.123C391.921 121.784 405.249 136.203 407.629 141.263C415.605 158.215 417.31 162.811 419.373 172.9C420.789 179.828 424.562 193.752 433.331 224.406C442.349 255.929 443.772 269.19 444.223 325.906C444.383 345.981 444.844 369.606 445.247 378.406C445.896 392.589 445.689 396.564 443.416 413.406C439.955 439.063 439.43 448.986 440.695 464.906C441.285 472.331 442.002 485.606 442.288 494.406C443.163 521.287 444.031 525.618 449.392 529.835C453.463 533.037 456.373 533.354 463.11 531.326C468.419 529.729 473.336 529.45 499.255 529.278C527.117 529.092 529.658 528.927 534.914 526.954C538.026 525.786 541.176 524.103 541.914 523.215C542.652 522.326 543.3 519.08 543.355 516.002C543.41 512.924 543.982 508.523 544.626 506.221C545.505 503.08 545.546 495.098 544.788 474.221C544.234 458.923 543.53 443.481 543.224 439.906C542.072 426.423 536.589 387.721 533.237 369.41C530.013 351.802 524.576 303.591 522.748 276.406C517.612 200.007 514.948 188.587 488.692 130.406C476.647 103.715 471.812 96.1286 457.755 81.8646C444.994 68.9166 427.242 53.8116 408.249 39.7436C380.644 19.2956 352.973 7.88063 315.374 1.42963C307.377 0.057631 289.36 -0.376367 279.755 0.571633ZM274.255 97.5166C273.155 97.8036 267.53 99.1726 261.755 100.559C244.754 104.64 224.322 111.634 207.296 119.202C191.188 126.362 168.677 149.979 154.946 174.126C135.188 208.871 131.584 216.236 124.461 236.406C118.011 254.67 116.395 260.7 111.863 283.406C109.668 294.406 106.52 309.031 104.869 315.906C101.908 328.23 101.342 331.367 96.2233 363.785C92.7823 385.58 91.5163 408.48 91.5183 448.906C91.5203 474.684 91.8833 484.596 93.0943 491.906C95.9983 509.431 96.7553 515.75 96.7553 522.448C96.7553 528.723 96.9563 529.307 100.252 532.603L103.75 536.101L120.002 535.475C144.167 534.545 146.191 534.236 149.722 530.937C152.504 528.338 152.755 527.559 152.755 521.539C152.755 517.929 152.037 509.897 151.16 503.69C149.357 490.943 149.832 468.716 152.319 449.406C153.099 443.356 154.427 428.731 155.271 416.906C158.012 378.497 159.67 362.762 163.177 341.906C168.671 309.227 177.486 271.676 181.838 262.406C182.355 261.306 184.799 254.14 187.269 246.482C192.401 230.571 194.129 227.229 208.245 205.906C216.225 193.85 220.589 188.406 227.88 181.406C233.036 176.456 238.605 171.741 240.255 170.929C241.905 170.116 244.952 168.417 247.027 167.152C252.96 163.536 267.526 159.086 275.885 158.336C281.44 157.838 285.52 158.099 290.885 159.294C303.586 162.125 311.709 168.191 321.785 182.368C325.082 187.007 328.207 191.067 328.729 191.39C330.798 192.669 340.621 209.867 343.588 217.406C347.729 227.928 354.202 255.076 357.776 276.906C368.921 344.977 369.28 349.835 370.722 451.906C371.286 491.781 372.02 526.881 372.354 529.905C373.474 540.046 377.511 544.497 389.586 548.904C396.311 551.358 399.362 551.906 406.298 551.906C414.542 551.906 414.889 551.81 418.466 548.532L422.147 545.158L422.886 525.782C423.292 515.125 424.115 501.456 424.716 495.406C427.3 469.352 427.697 458.507 426.634 443.011C425.986 433.564 425.876 421.882 426.357 413.406C427.427 394.521 426.96 369.79 425.281 356.406C423.933 345.655 423.379 340.587 422.223 328.406C421.909 325.106 421.02 317.456 420.246 311.406C419.472 305.356 418.346 293.206 417.743 284.406C416.254 262.659 413.549 245.641 409.4 231.906C407.489 225.581 404.299 214.331 402.312 206.906C398.974 194.435 394.616 181.802 392.824 179.406C392.413 178.856 390.573 174.581 388.734 169.906C381.424 151.319 373.644 138.914 360.825 125.406C349.573 113.549 345.432 110.664 334.986 107.406C330.184 105.909 322.07 103.143 316.956 101.26C308.145 98.0156 306.832 97.8136 291.956 97.4146C283.32 97.1836 275.355 97.2286 274.255 97.5166Z" fill="#DEC431"/>
<path fill-rule="evenodd" clip-rule="evenodd" d="M280.255 0.620662C267.874 1.89366 246.609 5.90166 235.255 9.10166C231.405 10.1867 226.905 11.4447 225.255 11.8967C209.501 16.2127 175.014 31.2927 161.986 39.5617C159.087 41.4007 156.489 42.9057 156.211 42.9057C155.934 42.9057 153.58 44.3747 150.981 46.1697C126.313 63.2097 108.883 79.5867 87.2953 106.007C73.4243 122.984 56.4693 151.28 45.8303 175.21C35.1253 199.287 26.7084 222.729 19.7514 247.84C11.4954 277.643 10.3753 284.854 4.36335 346.962C1.15935 380.057 0.782349 386.137 0.309349 412.406C-0.0996514 435.121 0.139351 439.3 3.76335 472.906C5.46635 488.689 5.85935 495.357 5.94435 509.906C5.99235 517.881 6.45435 525.232 6.97335 526.241C7.49235 527.25 9.44034 528.712 11.3033 529.491C15.7863 531.364 31.6253 531.308 43.2553 529.377C48.2053 528.556 57.6553 527.6 64.2553 527.252C78.4413 526.506 80.1403 525.996 82.2953 521.828C84.2183 518.11 84.1063 516.389 80.3213 491.406C77.6213 473.586 77.3663 462.323 79.2853 445.639C81.0923 429.926 82.7293 411.665 83.2503 401.406C83.9453 387.728 85.3444 372.954 86.7064 364.906C87.2184 361.881 87.8893 357.381 88.1983 354.906C88.5063 352.431 88.9823 349.281 89.2573 347.906C89.5313 346.531 90.4333 338.359 91.2613 329.746C92.9413 312.291 94.1893 304.849 98.8673 284.406C99.3703 282.206 100.635 275.906 101.678 270.406C102.721 264.906 104.31 257.031 105.211 252.906C107.616 241.887 112.747 217.871 113.437 214.406C114.409 209.521 124.836 187.49 130.191 179.007C136.218 169.46 147.583 155.079 156.267 146.01C161.325 140.728 167.892 133.712 170.859 130.418C191.728 107.261 207.643 97.0167 240.584 85.5397C252.814 81.2787 263.996 80.4167 291.543 81.6107C313.507 82.5627 317.256 82.9777 325.255 85.3437C338.967 89.4007 351.99 94.7687 357.268 98.5407C360.087 100.555 365.737 103.842 373.824 108.173C378.04 110.43 390.192 119.969 393.755 123.818C402.05 132.778 407.029 139.295 408.834 143.555C409.964 146.223 411.738 150.206 412.775 152.406C416.354 159.998 417.601 163.797 419.236 172.087C420.676 179.386 421.895 183.945 425.737 196.406C426.245 198.056 428.261 205.573 430.216 213.11C432.171 220.648 434.176 227.884 434.673 229.191C436.306 233.485 439.75 248.984 441.166 258.406C443.108 271.327 443.965 289.367 444.199 322.201C444.349 343.214 444.812 368.056 445.229 377.406C445.909 392.655 445.721 396.415 443.412 413.906C439.926 440.307 439.461 449.069 440.705 464.906C441.288 472.331 441.997 484.931 442.28 492.906C443.298 521.566 444.087 525.662 449.392 529.835C453.463 533.037 456.373 533.354 463.11 531.326C468.372 529.743 473.291 529.449 497.354 529.277C526.97 529.067 530.689 528.796 536.321 526.443C542.088 524.033 543.24 522.244 543.383 515.477C543.453 512.138 544.025 507.831 544.653 505.906C545.737 502.587 544.869 463.268 543.218 440.906C542.47 430.773 537.093 390.898 534.724 377.906C529.67 350.204 524.313 304.309 522.292 271.406C518.141 203.817 514.586 188.417 490.907 135.406C481.472 114.286 480.91 113.172 473.738 101.423C465.06 87.2047 440.441 63.7357 411.735 42.3167C391.312 27.0767 375.681 18.6177 353.755 10.9407C346.531 8.41166 330.297 4.39866 317.255 1.91766C307.07 -0.0203369 291.721 -0.558338 280.255 0.620662ZM163.834 334.489C163.882 335.654 164.119 335.891 164.438 335.094C164.727 334.372 164.691 333.509 164.359 333.177C164.027 332.845 163.791 333.435 163.834 334.489ZM426.913 458.906C426.913 460.281 427.14 460.844 427.417 460.156C427.695 459.469 427.695 458.344 427.417 457.656C427.14 456.969 426.913 457.531 426.913 458.906Z" fill="#DE7931"/>
</svg>
